<svg xmlns="http://www.w3.org/2000/svg" viewBox="-247 370.9 100 100">
<g>
	<path d="M-223.7,402.6c-5.3,0-9.4,4.1-9.4,9.4c0,5.1,4.3,9.4,9.4,9.4s9.4-4.3,9.4-9.4C-214.3,406.8-218.4,402.6-223.7,402.6z
		 M-223.7,416.5c-2.1,0-4.4-1.8-4.4-4.4c0-2.5,1.9-4.4,4.4-4.4s4.4,1.9,4.4,4.4C-219.3,414.7-221.6,416.5-223.7,416.5z"/>
	<path d="M-196.6,402.6c-5.3,0-9.4,4.1-9.4,9.4c0,5.1,4.3,9.4,9.4,9.4s9.4-4.3,9.4-9.4C-187.1,406.8-191.3,402.6-196.6,402.6z
		 M-196.6,416.5c-2.1,0-4.4-1.8-4.4-4.4c0-2.5,1.9-4.4,4.4-4.4c2.5,0,4.4,1.9,4.4,4.4C-192.1,414.7-194.4,416.5-196.6,416.5z"/>
	<path d="M-169.4,402.6c-5.3,0-9.4,4.1-9.4,9.4c0,5.1,4.3,9.4,9.4,9.4s9.4-4.3,9.4-9.4C-160,406.8-164.1,402.6-169.4,402.6z
		 M-169.4,416.5c-2.1,0-4.4-1.8-4.4-4.4c0-2.5,1.9-4.4,4.4-4.4s4.4,1.9,4.4,4.4C-165,414.7-167.3,416.5-169.4,416.5z"/>
	<path d="M-147.6,390.5c-0.3-5.5-4.7-9.8-10-9.8h-78.8c-5.6,0-10.1,4.6-10.1,10.2v42.3c0,5.5,4.6,10.2,10.1,10.2h2.3v14.1
		c0,1.5,0.8,2.8,2.2,3.4c0.6,0.3,1.1,0.4,1.7,0.4c1,0,1.9-0.4,2.6-1.1l17.3-16.9h52.8c5.4,0,10-4.7,10-10.2v-42.6L-147.6,390.5z
		 M-152.6,433.2c0,2.8-2.3,5.2-5,5.2h-54.8l-16.7,16.3v-16.3h-7.3c-2.7,0-5.1-2.4-5.1-5.2v-42.3c0-2.8,2.3-5.2,5.1-5.2h78.8
		c2.7,0,4.8,2.2,5,5V433.2z"/>
</g>
</svg>
