<svg viewBox="0 0 60 60" xmlns="http://www.w3.org/2000/svg">
<g>
<path d="m12 50h28.144l8.4 9.362c.3726397.4046154.8969372.6357846 1.447.638.3179826-.0002887.6313134-.0763931.914-.222.7902208-.3908112 1.2241358-1.2594584 1.062-2.126l-1.285-8.008c5.4002815-1.2985425 9.2349285-6.0904109 9.318-11.644v-26c-.0071648-6.62444695-5.375553-11.99283515-12-12h-36c-6.62444695.00716485-11.99283515 5.37555305-12 12v26c.00716485 6.624447 5.37555305 11.9928352 12 12zm-10-38c.00606237-5.52033443 4.47966557-9.99393763 10-10h36c5.5203344.00606237 9.9939376 4.47966557 10 10v26c-.0792311 4.6380629-3.29394 8.6317458-7.808 9.7-1.0066867.2499111-1.6533923 1.2301898-1.487 2.254l1.31 8.055-8.383-9.349c-.3799859-.4210265-.9208565-.6609288-1.488-.66h-28.144c-5.52033443-.0060624-9.99393763-4.4796656-10-10z"/>
<path d="m6 12c.00330738-3.31233757 2.68766243-5.99669262 6-6 .5522847 0 1-.44771525 1-1s-.4477153-1-1-1c-4.41622192.00495988-7.99504012 3.58377808-8 8 .00000001.5522847.44771526 1 1 1s.99999999-.4477153 1-1z"/>
<circle cx="16" cy="5" r="1"/>
<path d="m9 25c0 2.7614237 2.2385763 5 5 5s5-2.2385763 5-5-2.2385763-5-5-5c-2.7600532.0033061-4.99669388 2.2399468-5 5zm5-3c1.6568542 0 3 1.3431458 3 3s-1.3431458 3-3 3-3-1.3431458-3-3 1.3431458-3 3-3z"/>
<path d="m30 30c2.7614237 0 5-2.2385763 5-5s-2.2385763-5-5-5-5 2.2385763-5 5c.0033061 2.7600532 2.2399468 4.9966939 5 5zm0-8c1.6568542 0 3 1.3431458 3 3s-1.3431458 3-3 3-3-1.3431458-3-3 1.3431458-3 3-3z"/>
<path d="m46 30c2.7614237 0 5-2.2385763 5-5s-2.2385763-5-5-5-5 2.2385763-5 5c.0033061 2.7600532 2.2399468 4.9966939 5 5zm0-8c1.6568542 0 3 1.3431458 3 3s-1.3431458 3-3 3-3-1.3431458-3-3 1.3431458-3 3-3z"/>
</g></svg>